_________________________  Visit us at _________________________
  
http://p2pdl.com  ____________________________  http://p2pdl.com

 
http://www.shotpix.com/images/38249071093033565166.jpg

The Master 2012 BRRip 720p x264 AAC - PRiSTiNE [P2PDL]
				
Genre: Drama
A Naval veteran arrives home from war unsettled and uncertain of his future - until he is tantalized by The Cause and its charismatic leader.
Director: Paul Thomas Anderson
Stars: Philip Seymour Hoffman, Joaquin Phoenix, Amy Adams
Rated: PG 13

IMDb: 
http://www.imdb.com/title/tt1560747/



General
Complete name                  : The Master 2012 BRRip 720p x264 AAC - PRiSTiNE [P2PDL].mp4
Format                         : MPEG-4
Format profile                 : Base Media / Version 2
Codec ID                       : mp42
File size                      : 738 MiB
Duration                       : 2h 17mn
Overall bit rate mode          : Variable
Overall bit rate               : 751 Kbps

Video
ID                             : 1
Format                         : AVC
Format/Info                    : Advanced Video Codec
Bit rate                       : 665 Kbps
Width                          : 1 280 pixels
Height                         : 688 pixels
Display aspect ratio           : 1.85:1
Frame rate mode                : Variable
Frame rate                     : 23.976 fps
Scan type                      : Progressive
Bits/(Pixel*Frame)             : 0.031
Stream size                    : 654 MiB (89%)

Audio
Format                         : AAC
Bit rate mode                  : Variable
Bit rate                       : 80.0 Kbps
Channel(s)                     : 2 channels
Channel positions              : Front: L R
Sampling rate                  : 48.0 KHz
Stream size                    : 78.6 MiB (11%)

Subtitle                       : Yes ( English)


Screens:
 
http://www.shotpix.com/images/76413782315185578022.jpg 
http://www.shotpix.com/images/83035339643096230722.jpg 
http://www.shotpix.com/images/32507323619394885761.jpg 
http://www.shotpix.com/images/34405191834474169130.jpg

Thumbs:
 
http://www.shotpix.com/images/89964799407556768013.jpg

----------------------------------------------------------------------------------------------------


Recommend to you to use latest version of VLC player. Install K-Lite Codec Pack or shark007 codecs
in case of any kind of problem in playback (For non-VLC Media Player users). Alternatively, install
Core AVC codecs, the fastest decoder that there is coupled with Community Center Codec Pack and play
on Windows Media Player Classic. Check sample to be sure.
Enjoy!

Greets to: VYTO, a2zRG, MusiK_KinG, Neon, Kuroyukihime, TorDigger, Ash968, StyLishSaLH and staff members at
ExtraTorrent, TPB, H33T, KAT, 1337x, PublicHD, Ahashare, BTScene, SilverTorrent, LimeTorrents, TorrentMafia,
P2PDL, and all others.

Encoder Notes: Looking For Early Access To Anything You Can Provide DVDScr, R5, DVDR, BluRay, Direct
Audio, Early Music Releases, Seedboxes, Dedicated Servers anything u can provide, Advance / Promo CDs/
DVDs. If You Got anything to offer contact me at "prg@hush.com".